<svg width="20" height="20" viewBox="0 0 20 20" fill="none" xmlns="http://www.w3.org/2000/svg">
<path d="M11.9226 3.35724C11.4801 3.23141 11.0074 3.48723 10.8809 3.93056L7.54759 15.5972C7.42118 16.0397 7.67801 16.5122 8.12059 16.6389C8.56309 16.7647 9.03576 16.5089 9.16226 16.0656L12.4956 4.39891C12.622 3.95641 12.3652 3.48391 11.9226 3.35724ZM5.69868 4.19057C5.48951 4.23224 5.27943 4.33806 5.15176 4.52973L1.81843 9.52972C1.65259 9.77806 1.63268 10.0956 1.76643 10.3631L4.26643 15.3631C4.47218 15.7739 4.97451 15.9589 5.38618 15.7531C5.79784 15.5472 5.98259 15.0447 5.77676 14.6331L3.48509 10.0764L6.55809 5.46641C6.81334 5.08391 6.70659 4.55057 6.32368 4.29474C6.13218 4.16724 5.90784 4.14891 5.69868 4.19057ZM15.282 4.21641C15.0797 4.14975 14.8628 4.13973 14.657 4.24306C14.2453 4.4489 14.0606 4.95139 14.2664 5.36306L16.5581 9.91974L13.4851 14.5297C13.2298 14.9122 13.3366 15.4456 13.7195 15.7014C14.1024 15.9564 14.6361 15.8497 14.8914 15.4664L18.2248 10.4664C18.3906 10.2181 18.4105 9.90058 18.2768 9.63308L15.7768 4.63308C15.6739 4.42808 15.4843 4.28475 15.282 4.21641Z" fill="#2F80ED"/>
</svg>
