<svg width="20" height="20" viewBox="0 0 20 20" fill="none" xmlns="http://www.w3.org/2000/svg">
<path d="M12.9157 2.44141C10.8447 2.44141 9.16574 4.12057 9.16574 6.19141C9.16574 8.26224 10.8447 9.94141 12.9157 9.94141C14.9868 9.94141 16.6657 8.26224 16.6657 6.19141C16.6657 4.12057 14.9868 2.44141 12.9157 2.44141ZM6.66574 3.27474C4.82482 3.27474 3.33241 4.76724 3.33241 6.60807C3.33241 8.44891 4.82482 9.94141 6.66574 9.94141C7.35691 9.94141 7.98782 9.75143 8.54307 9.3631C7.11907 7.24643 7.32091 5.21974 8.09699 3.58724C7.65374 3.37724 7.16691 3.27474 6.66574 3.27474ZM4.21782 11.0614C2.68941 11.6922 1.66574 13.2381 1.66574 14.9414V16.6081C1.66574 17.0681 2.03882 17.4414 2.49907 17.4414L5.95974 17.4431C5.76474 16.8098 5.82207 15.7831 5.83491 14.9522C5.86199 13.1881 6.59157 11.9297 6.87732 11.5981C6.35216 11.5939 5.72191 11.4664 5.25949 11.2697C5.14782 11.2222 5.08299 11.1847 4.86891 11.0872C4.65899 10.9914 4.43099 10.9731 4.21782 11.0614ZM10.0512 11.0614C8.52274 11.6922 7.49907 13.2381 7.49907 14.9414V16.6081C7.49907 17.0681 7.87216 17.4414 8.33241 17.4414H17.4991C17.9593 17.4414 18.3324 17.0681 18.3324 16.6081V14.9414C18.3324 13.2781 17.3031 11.7697 15.7803 11.1131C15.566 11.0206 15.3162 11.0181 15.1032 11.1131C14.3659 11.4439 13.6476 11.6081 12.9157 11.6081C12.1864 11.6081 11.4656 11.4347 10.7022 11.0872C10.4923 10.9914 10.2643 10.9731 10.0512 11.0614Z" fill="#2F80ED"/>
</svg>
