<svg width="20" height="20" viewBox="0 0 20 20" fill="none" xmlns="http://www.w3.org/2000/svg">
<path d="M10.0118 1.62769C5.4093 1.62769 1.67847 5.35851 1.67847 9.96099C1.67847 14.5635 5.4093 18.2943 10.0118 18.2943C14.6143 18.2943 18.3451 14.5635 18.3451 9.96099C18.3451 5.35851 14.6143 1.62769 10.0118 1.62769ZM10.0118 3.71101C13.4635 3.71101 16.2618 6.50934 16.2618 9.96099C16.2618 10.191 16.0751 10.3777 15.8451 10.3777C15.6151 10.3777 15.4285 10.191 15.4285 9.96099C15.4285 6.96934 13.0035 4.54434 10.0118 4.54434C8.55847 4.54434 7.19264 5.12768 6.18347 6.13268C6.02097 6.29518 5.77346 6.29601 5.61096 6.13268C5.44846 5.97018 5.44763 5.69602 5.61096 5.53352C6.7743 4.37435 8.33597 3.71101 10.0118 3.71101ZM10.0118 5.37767C12.5435 5.37767 14.5951 7.42933 14.5951 9.96099C14.5951 10.191 14.4085 10.3777 14.1785 10.3777C13.9485 10.3777 13.7618 10.191 13.7618 9.96099C13.7618 7.89017 12.0826 6.21101 10.0118 6.21101C9.01013 6.21101 8.0793 6.61351 7.3818 7.30434C7.21846 7.46684 6.9443 7.46851 6.78263 7.30434C6.62097 7.14101 6.6193 6.86766 6.78263 6.706C7.63513 5.86183 8.78847 5.37767 10.0118 5.37767ZM10.0118 9.12766C10.4718 9.12766 10.8451 9.501 10.8451 9.96099C10.8451 10.421 10.4718 10.7943 10.0118 10.7943C9.5518 10.7943 9.17847 10.421 9.17847 9.96099C9.17847 9.501 9.5518 9.12766 10.0118 9.12766ZM4.17847 9.54433C4.40847 9.54433 4.59513 9.73099 4.59513 9.96099C4.59513 12.9527 7.02013 15.3776 10.0118 15.3776C11.4635 15.3776 12.831 14.7926 13.8401 13.7893C14.0026 13.6268 14.2501 13.626 14.4126 13.7893C14.5751 13.9526 14.576 14.226 14.4126 14.3877C13.2493 15.546 11.686 16.211 10.0118 16.211C6.56013 16.211 3.7618 13.4127 3.7618 9.96099C3.7618 9.73099 3.94847 9.54433 4.17847 9.54433ZM5.84513 9.54433C6.07513 9.54433 6.2618 9.73099 6.2618 9.96099C6.2618 12.0318 7.94097 13.711 10.0118 13.711C11.0185 13.711 11.9693 13.3143 12.6676 12.6168C12.831 12.4552 13.0785 12.4543 13.241 12.6168C13.4035 12.7802 13.4043 13.0535 13.241 13.216C12.3876 14.0677 11.241 14.5443 10.0118 14.5443C7.48013 14.5443 5.42847 12.4927 5.42847 9.96099C5.42847 9.73099 5.61513 9.54433 5.84513 9.54433Z" fill="#F2F2F2"/>
</svg>
