<svg width="642" height="1074" viewBox="0 0 642 1074" fill="none" xmlns="http://www.w3.org/2000/svg">
<path opacity="0.817" fill-rule="evenodd" clip-rule="evenodd" d="M316.5 174.5C325.055 172.82 329.221 176.153 329 184.5C328.391 188.283 326.224 189.95 322.5 189.5C322.5 192.167 322.5 194.833 322.5 197.5C327.295 196.563 330.628 198.23 332.5 202.5C332.471 204.029 331.804 205.196 330.5 206C327.937 207.079 325.271 207.579 322.5 207.5C322.5 209.5 322.5 211.5 322.5 213.5C330.84 213.286 338.84 214.786 346.5 218C349.425 221.696 349.092 225.029 345.5 228C338.367 230.46 331.033 231.96 323.5 232.5C324.249 239.136 324.916 245.802 325.5 252.5C329.223 257.592 332.723 262.926 336 268.5C342.026 287.94 348.36 307.274 355 326.5C397.895 446.359 441.062 566.025 484.5 685.5C483.597 689.512 482.764 693.845 482 698.5C474.281 705.948 465.448 711.781 455.5 716C450.518 717.157 446.185 719.324 442.5 722.5C437.52 748.064 433.187 773.731 429.5 799.5C439.316 800.381 448.149 803.714 456 809.5C458.521 812.348 458.854 815.348 457 818.5C452.633 824.434 446.8 827.934 439.5 829C452.43 833.13 452.763 838.13 440.5 844C433.89 844.808 427.39 845.974 421 847.5C418.338 853.034 419.005 858.034 423 862.5C425.606 875.902 420.606 880.235 408 875.5C404.667 870.5 404.667 865.5 408 860.5C409.011 859.663 410.178 859.33 411.5 859.5C411.002 854.848 410.669 850.181 410.5 845.5C401.005 845.376 392.005 843.209 383.5 839C379.604 834.367 380.604 830.7 386.5 828C382.504 826.337 378.837 824.171 375.5 821.5C372.183 818.26 371.683 814.593 374 810.5C375.873 808.291 378.04 806.458 380.5 805C388.303 801.778 396.303 799.445 404.5 798C401.361 777.042 398.528 756.209 396 735.5C389.563 736.969 383.063 738.303 376.5 739.5C368.358 772.399 360.692 805.399 353.5 838.5C349.561 842.932 344.561 845.266 338.5 845.5C335.751 867.823 333.085 890.156 330.5 912.5C336.993 913.163 342.493 915.83 347 920.5C348.123 923.956 347.29 926.79 344.5 929C341.318 931.091 337.985 932.925 334.5 934.5C338.785 938.546 338.452 942.046 333.5 945C330.937 946.079 328.271 946.579 325.5 946.5C324.758 952.512 324.258 958.512 324 964.5C331.006 968.376 332.173 973.543 327.5 980C322.833 982 318.167 982 313.5 980C308.827 973.543 309.994 968.376 317 964.5C316.742 958.512 316.242 952.512 315.5 946.5C311.125 946.653 307.292 945.32 304 942.5C303.014 939.258 303.848 936.592 306.5 934.5C303.015 932.925 299.682 931.091 296.5 929C292.325 924.694 292.658 920.694 297.5 917C301.606 914.798 305.94 913.298 310.5 912.5C307.915 890.156 305.249 867.823 302.5 845.5C296.439 845.266 291.439 842.932 287.5 838.5C280.319 805.774 272.819 773.108 265 740.5C263.991 739.342 262.658 738.675 261 738.5C255.84 737.523 250.674 737.023 245.5 737C246.081 737.893 246.415 738.893 246.5 740C244.274 757.47 241.94 775.137 239.5 793C239.755 794.326 240.422 795.326 241.5 796C240.328 796.419 239.328 797.085 238.5 798C246.697 799.445 254.697 801.778 262.5 805C266.908 807.233 269.575 810.733 270.5 815.5C270.402 817.937 269.402 819.937 267.5 821.5C264.163 824.171 260.496 826.337 256.5 828C262.396 830.7 263.396 834.367 259.5 839C250.995 843.209 241.995 845.376 232.5 845.5C232.331 850.181 231.998 854.848 231.5 859.5C232.822 859.33 233.989 859.663 235 860.5C238.333 865.5 238.333 870.5 235 875.5C222.394 880.235 217.394 875.902 220 862.5C223.995 858.034 224.662 853.034 222 847.5C215.61 845.974 209.11 844.808 202.5 844C190.237 838.13 190.57 833.13 203.5 829C194.6 827.76 188.267 823.094 184.5 815C187.772 807.749 193.439 803.415 201.5 802C205.473 800.972 209.473 800.139 213.5 799.5C209.987 773.27 205.32 747.27 199.5 721.5C187.503 717.335 176.17 711.835 165.5 705C163.333 702.833 161.167 700.667 159 698.5C158.236 693.845 157.403 689.512 156.5 685.5C199.938 566.025 243.105 446.359 286 326.5C292.632 307.32 298.966 287.986 305 268.5C308.277 262.926 311.777 257.592 315.5 252.5C316.084 245.802 316.751 239.136 317.5 232.5C309.967 231.96 302.633 230.46 295.5 228C291.908 225.029 291.575 221.696 294.5 218C302.16 214.786 310.16 213.286 318.5 213.5C318.5 211.5 318.5 209.5 318.5 207.5C315.729 207.579 313.063 207.079 310.5 206C307.833 203.667 307.833 201.333 310.5 199C313.014 197.748 315.68 197.248 318.5 197.5C318.5 194.833 318.5 192.167 318.5 189.5C314.067 189.223 311.733 186.723 311.5 182C312.313 178.858 313.98 176.358 316.5 174.5ZM317.5 199.5C318.451 200.919 318.784 202.585 318.5 204.5C312.235 203.614 311.902 201.947 317.5 199.5ZM322.5 199.5C328.994 201.454 328.994 203.12 322.5 204.5C322.5 202.833 322.5 201.167 322.5 199.5ZM308.5 216.5C311.833 216.5 315.167 216.5 318.5 216.5C318.079 220.2 317.412 223.867 316.5 227.5C310.709 228.876 305.042 228.376 299.5 226C296.075 224.402 295.742 222.402 298.5 220C301.85 218.514 305.184 217.347 308.5 216.5ZM322.5 216.5C329.462 216.059 336.129 217.226 342.5 220C343.574 220.739 344.241 221.739 344.5 223C343.042 225.121 341.042 226.454 338.5 227C334.239 228.363 329.905 228.696 325.5 228C323.653 224.496 322.653 220.663 322.5 216.5ZM468.5 659.5C448.642 643.41 425.975 632.91 400.5 628C399.333 627.5 398.5 626.667 398 625.5C383.765 536.089 369.098 446.756 354 357.5C350.294 345.146 343.461 334.979 333.5 327C319.452 320.345 307.619 323.179 298 335.5C293.279 342.276 289.612 349.609 287 357.5C271.902 446.756 257.235 536.089 243 625.5C242.5 626.667 241.667 627.5 240.5 628C215.025 632.91 192.358 643.41 172.5 659.5C213.422 542.983 254.922 426.65 297 310.5C301.068 298.962 304.735 287.295 308 275.5C316.333 254.167 324.667 254.167 333 275.5C336.265 287.295 339.932 298.962 344 310.5C386.078 426.65 427.578 542.983 468.5 659.5ZM317.5 328.5C322.483 328.412 327.149 329.579 331.5 332C340.569 339.962 346.736 349.795 350 361.5C364.718 449.809 379.218 538.143 393.5 626.5C344.833 619.833 296.167 619.833 247.5 626.5C261.782 538.143 276.282 449.809 291 361.5C294.264 349.795 300.431 339.962 309.5 332C312.158 330.522 314.825 329.355 317.5 328.5ZM311.5 626.5C333.123 626.789 354.623 628.122 376 630.5C411.612 631.041 442.612 643.375 469 667.5C473.795 673.757 476.962 680.757 478.5 688.5C477.801 695.405 474.468 700.572 468.5 704C440.052 718.764 410.052 727.931 378.5 731.5C380.215 725.595 381.548 719.595 382.5 713.5C382.109 710.219 380.776 707.385 378.5 705C373.945 701.555 368.945 698.888 363.5 697C335.935 688.732 308.268 688.399 280.5 696C271.262 698.016 264.095 702.85 259 710.5C259.062 717.65 260.229 724.65 262.5 731.5C229.669 727.836 198.669 718.003 169.5 702C160.714 693.079 160.214 683.579 168 673.5C171.789 667.377 176.622 662.21 182.5 658C207.337 640.388 234.837 631.221 265 630.5C280.561 628.74 296.061 627.407 311.5 626.5ZM310.5 694.5C330.511 693.669 349.844 696.835 368.5 704C380.791 711.263 380.458 717.93 367.5 724C338.282 732.522 308.949 733.189 279.5 726C274.023 724.678 269.189 722.178 265 718.5C263.286 715.55 263.286 712.55 265 709.5C271.35 704.485 278.516 700.985 286.5 699C294.619 697.372 302.619 695.872 310.5 694.5ZM435.5 723.5C436.376 723.369 437.043 723.702 437.5 724.5C432.4 749.002 428.067 773.668 424.5 798.5C419.167 798.5 413.833 798.5 408.5 798.5C406.058 777.332 403.891 756.332 402 735.5C413.286 731.724 424.453 727.724 435.5 723.5ZM240.5 739.5C240.9 747.209 239.9 754.876 237.5 762.5C237.931 763.293 238.265 764.127 238.5 765C236.633 776.102 235.3 787.268 234.5 798.5C229.167 798.5 223.833 798.5 218.5 798.5C215.327 776.456 211.66 754.79 207.5 733.5C207.833 732.833 208.167 732.167 208.5 731.5C208.154 730.304 207.654 730.304 207 731.5C206.338 729.187 205.838 726.854 205.5 724.5C217.428 728.588 229.428 732.255 241.5 735.5C241.768 737.099 241.434 738.432 240.5 739.5ZM266.5 724.5C283.59 732.232 301.59 735.899 320.5 735.5C333.314 735.21 345.981 733.71 358.5 731C364.009 729.609 369.176 727.443 374 724.5C366.456 760.342 358.123 796.009 349 831.5C339.887 827.953 330.387 826.286 320.5 826.5C310.613 826.286 301.113 827.953 292 831.5C283.042 795.999 274.542 760.333 266.5 724.5ZM220.5 803.5C224.833 803.5 229.167 803.5 233.5 803.5C232.578 810.542 231.411 817.542 230 824.5C227.959 825.423 225.792 825.756 223.5 825.5C221.94 818.249 220.94 810.916 220.5 803.5ZM238.5 803.5C248.022 804.086 256.856 806.753 265 811.5C265.379 816.823 262.879 820.323 257.5 822C253.833 823 250.167 824 246.5 825C242.744 825.375 239.078 824.875 235.5 823.5C236.646 816.851 237.646 810.184 238.5 803.5ZM401.5 803.5C403.124 803.36 404.29 804.027 405 805.5C405.508 811.564 406.341 817.564 407.5 823.5C403.922 824.875 400.256 825.375 396.5 825C389.339 824.18 383.172 821.346 378 816.5C376.729 812.834 377.896 810.334 381.5 809C388.118 806.515 394.785 804.682 401.5 803.5ZM409.5 803.5C413.833 803.5 418.167 803.5 422.5 803.5C421.934 810.896 420.934 818.229 419.5 825.5C417.208 825.756 415.041 825.423 413 824.5C411.589 817.542 410.422 810.542 409.5 803.5ZM210.5 804.5C212.144 804.286 213.644 804.62 215 805.5C215.953 811.888 217.12 818.221 218.5 824.5C218.291 825.086 217.957 825.586 217.5 826C207.644 826.454 198.644 823.954 190.5 818.5C189.224 816.139 189.558 813.972 191.5 812C197.57 808.593 203.904 806.093 210.5 804.5ZM428.5 804.5C435.464 805.21 442.131 807.043 448.5 810C452.446 811.72 453.779 814.553 452.5 818.5C444.356 823.954 435.356 826.454 425.5 826C425.661 818.847 426.661 811.681 428.5 804.5ZM240.5 830.5C246.465 829.994 252.132 830.994 257.5 833.5C250.091 837.687 242.091 840.021 233.5 840.5C234.159 837.545 234.492 834.545 234.5 831.5C236.735 831.795 238.735 831.461 240.5 830.5ZM392.5 830.5C397.854 830.569 403.187 830.902 408.5 831.5C408.274 834.249 408.607 836.916 409.5 839.5C400.946 840.028 392.946 838.028 385.5 833.5C387.875 832.34 390.208 831.34 392.5 830.5ZM210.5 831.5C213.5 831.5 216.5 831.5 219.5 831.5C220.051 834.807 220.384 838.14 220.5 841.5C213.359 841.079 206.359 839.913 199.5 838C198.167 837.333 198.167 836.667 199.5 836C203.157 834.178 206.824 832.678 210.5 831.5ZM224.5 831.5C226.167 831.5 227.833 831.5 229.5 831.5C229.492 834.545 229.159 837.545 228.5 840.5C227.5 840.5 226.5 840.5 225.5 840.5C225.492 837.455 225.159 834.455 224.5 831.5ZM311.5 831.5C316.853 832.51 322.187 832.51 327.5 831.5C334.431 831.88 341.098 833.38 347.5 836C343.94 839.729 340.94 839.729 338.5 836C326.5 832.667 314.5 832.667 302.5 836C300.06 839.729 297.06 839.729 293.5 836C299.395 833.529 305.395 832.029 311.5 831.5ZM413.5 831.5C415.167 831.5 416.833 831.5 418.5 831.5C417.841 834.455 417.508 837.455 417.5 840.5C416.5 840.5 415.5 840.5 414.5 840.5C413.841 837.545 413.508 834.545 413.5 831.5ZM423.5 831.5C431.148 830.995 438.148 832.828 444.5 837C443.672 837.915 442.672 838.581 441.5 839C435.184 840.043 428.85 840.877 422.5 841.5C422.616 838.14 422.949 834.807 423.5 831.5ZM316.5 838.5C321.859 838.67 327.192 839.17 332.5 840C333.122 841.569 333.456 843.236 333.5 845C330.886 866.862 328.052 888.695 325 910.5C322 911.833 319 911.833 316 910.5C312.88 888.704 310.046 866.87 307.5 845C307.544 843.236 307.878 841.569 308.5 840C311.365 839.817 314.031 839.317 316.5 838.5ZM316.5 916.5C319.247 916.187 321.914 916.52 324.5 917.5C323.589 921.788 322.922 926.121 322.5 930.5C321.167 930.5 319.833 930.5 318.5 930.5C317.996 925.798 317.329 921.131 316.5 916.5ZM308.5 917.5C309.5 917.5 310.5 917.5 311.5 917.5C312.256 921.873 312.756 926.206 313 930.5C308.416 929.64 304.416 927.64 301 924.5C300.289 922.633 300.789 921.133 302.5 920C304.723 919.434 306.723 918.6 308.5 917.5ZM329.5 917.5C332.568 918.022 335.568 918.855 338.5 920C341.192 922.632 340.859 924.966 337.5 927C334.382 928.372 331.216 929.538 328 930.5C328.244 926.206 328.744 921.873 329.5 917.5ZM313.5 936.5C314.451 937.919 314.784 939.585 314.5 941.5C308.574 940.321 308.24 938.654 313.5 936.5ZM319.5 936.5C320.586 936.62 321.253 937.287 321.5 938.5C321.167 939.167 320.833 939.833 320.5 940.5C319.571 939.311 319.238 937.978 319.5 936.5ZM326.5 936.5C333.107 938.22 333.107 939.887 326.5 941.5C326.5 939.833 326.5 938.167 326.5 936.5Z" fill="#F0F2F6"/>
</svg>
