<svg width="190" height="318" viewBox="0 0 190 318" fill="none" xmlns="http://www.w3.org/2000/svg">
<g clip-path="url(#clip0_209_83)">
<path d="M92.9142 59.6478C92.3527 60.0918 92.3527 60.0918 92.9142 60.5359C93.8303 61.2167 94.2736 61.0687 94.2736 60.0918C94.2736 59.115 93.8303 58.967 92.9142 59.6478Z" fill="white"/>
<path d="M95.4557 60.0918C95.4557 61.0687 95.899 61.2167 96.8152 60.5359C97.3767 60.0918 97.3767 60.0918 96.8152 59.6478C95.899 58.967 95.4557 59.115 95.4557 60.0918Z" fill="white"/>
<path d="M91.4661 64.1177C89.4565 64.5617 88.3335 64.9762 87.8902 65.4498C87.4173 65.9826 87.4173 66.0418 87.9197 66.6043C88.6881 67.4331 91.0819 68.114 92.6482 67.8772C93.8303 67.7292 93.919 67.6403 94.0963 66.6339C94.185 66.0418 94.2736 65.213 94.2736 64.7394C94.2736 63.9993 94.185 63.9401 93.1802 63.9697C92.5595 63.9993 91.7912 64.0585 91.4661 64.1177Z" fill="white"/>
<path d="M95.4557 64.7098C95.4557 65.1834 95.5444 66.0418 95.633 66.6339C95.8104 67.6403 95.899 67.7292 97.0811 67.8772C98.6474 68.114 101.041 67.4331 101.81 66.6043C102.312 66.0418 102.312 65.9826 101.839 65.4794C101.248 64.7986 99.6522 64.2953 97.2584 64.0585L95.4557 63.8513V64.7098Z" fill="white"/>
<path d="M70.5427 64.769C68.6217 66.9004 67.1736 76.817 67.5283 85.5496C67.6169 88.0658 67.7647 90.7003 67.8829 91.3812L68.0307 92.6541H71.5179H75.0051L75.2416 90.0491C75.5075 86.6745 75.1825 77.9123 74.621 74.0344C73.8526 68.6765 72.5227 64.7098 71.3406 64.325C71.1633 64.2658 70.8086 64.473 70.5427 64.769Z" fill="white"/>
<path d="M117.65 65.0058C115.404 67.8476 113.69 82.3526 114.547 90.8483L114.754 92.6541H118.241H121.728L121.935 90.9371C122.29 88.1546 122.201 76.7282 121.787 74.0048C120.96 68.3509 119.778 64.7098 118.625 64.325C118.418 64.2658 118.005 64.5618 117.65 65.0058Z" fill="white"/>
<path d="M93.1802 77.7346C91.7912 79.2147 91.5843 79.6884 89.8407 85.3719C89.0132 88.1249 87.3878 92.9204 86.2352 96.0286C83.9006 102.393 79.5563 114.471 77.4285 120.48C76.6601 122.67 74.4141 128.946 72.4636 134.393C68.1489 146.47 68.4149 145.641 68.9764 145.641C69.2128 145.641 70.0403 146.382 70.8382 147.299C71.6066 148.217 73.2024 150.052 74.355 151.384C75.5075 152.687 76.5715 154.167 76.7192 154.64C77.0147 155.499 77.8422 150.703 82.748 119.74C84.7871 106.981 85.0827 105.679 86.5012 102.778C90.8159 93.9861 98.9134 93.9861 103.228 102.778C104.647 105.679 104.942 106.981 106.981 119.74C111.887 150.703 112.715 155.499 113.01 154.64C113.158 154.167 114.222 152.687 115.374 151.384C116.527 150.052 118.123 148.217 118.891 147.299C119.689 146.382 120.517 145.641 120.753 145.641C121.314 145.641 121.58 146.47 117.236 134.393C115.286 128.946 113.394 123.618 113.04 122.552C112.035 119.681 107.129 105.975 103.937 97.2423C102.401 93.0092 100.509 87.4737 99.7409 84.9575C98.9725 82.4413 98.145 80.014 97.9382 79.57C97.2585 78.2675 95.5739 76.669 94.8647 76.669C94.4805 76.669 93.7712 77.113 93.1802 77.7346Z" fill="white"/>
<path d="M46.8708 93.4828C46.3684 94.4893 45.5114 98.9295 45.5114 100.646V101.742L47.1073 101.594C47.9939 101.535 48.9691 101.623 49.3237 101.801C49.8557 102.097 49.9443 102.067 49.9443 101.623C49.9443 99.344 48.4667 93.5716 47.7574 92.9796C47.4028 92.6835 47.2255 92.7723 46.8708 93.4828Z" fill="white"/>
<path d="M141.706 93.3348C141.144 94.1933 140.228 97.8639 139.933 100.291L139.726 102.186L140.376 101.831C140.79 101.623 141.706 101.535 142.622 101.594L144.218 101.742V100.646C144.218 98.0415 142.918 92.654 142.297 92.654C142.208 92.654 141.972 92.95 141.706 93.3348Z" fill="white"/>
<path d="M66.1984 94.2228C65.1345 94.43 64.0115 94.7557 63.716 94.9333C62.0019 95.9101 72.9365 96.443 77.4285 95.6141C78.6402 95.3773 79.7632 95.1997 79.9109 95.1997C80.502 95.1405 80.3542 94.4892 79.7336 94.282C78.4628 93.8972 68.2376 93.838 66.1984 94.2228Z" fill="white"/>
<path d="M112.005 93.9861C111.769 94.0453 111.06 94.1637 110.439 94.2821C109.759 94.4005 109.346 94.6077 109.434 94.8149C109.493 95.0221 109.671 95.1701 109.818 95.1997C109.966 95.1997 111.089 95.3774 112.301 95.6142C115.108 96.147 122.526 96.147 124.861 95.6438C126.545 95.2589 126.575 95.2293 125.895 94.8741C124.624 94.2229 121.078 93.8381 116.675 93.8677C114.34 93.8973 112.242 93.9565 112.005 93.9861Z" fill="white"/>
<path d="M67.8829 119.207C67.7943 131.285 67.8238 141.527 67.942 142C68.1489 142.8 68.1784 142.8 68.5035 142.208C68.8582 141.556 71.9612 133.001 74.0595 126.903L75.3598 123.144V110.178V97.2127L71.7248 97.2423H68.0602L67.8829 119.207Z" fill="white"/>
<path d="M93.2984 97.5384C90.9046 98.16 88.4222 101.031 86.7376 105.116C85.9693 107.011 85.1713 111.511 79.3494 147.122C78.4628 152.568 76.7488 163.136 75.5076 170.566C74.2959 178.026 73.2911 184.183 73.2911 184.272C73.2911 184.361 73.0842 184.42 72.8183 184.42C72.2567 184.42 72.1385 185.219 74.3846 171.543C75.2711 166.008 76.0691 160.946 76.1577 160.294C76.2759 159.14 74.8869 162.159 70.7791 172.017C69.6265 174.799 69.2128 175.51 68.5331 175.806C67.5874 176.22 66.9668 175.984 66.0802 174.888C64.573 173.083 60.4652 168.465 60.4061 168.524C60.3174 168.613 56.6824 178.737 54.8206 184.124C54.1113 186.167 52.8405 189.689 52.0426 191.939C51.2151 194.218 50.5354 196.113 50.5354 196.202C50.5354 196.261 51.0674 195.846 51.7471 195.254C54.1704 193.034 60.1992 189.6 63.9819 188.268C71.8726 185.515 80.9748 184.331 94.8647 184.331C108.755 184.331 117.857 185.515 125.747 188.268C129.53 189.6 135.559 193.034 137.982 195.254C138.662 195.846 139.194 196.261 139.194 196.202C139.194 196.113 138.514 194.218 137.687 191.939C136.889 189.689 135.618 186.167 134.909 184.124C133.047 178.737 129.412 168.613 129.323 168.524C129.264 168.465 125.156 173.083 123.649 174.888C122.763 175.984 122.142 176.22 121.196 175.806C120.517 175.51 120.103 174.799 118.95 172.017C114.842 162.159 113.453 159.14 113.572 160.294C113.66 160.946 114.458 166.008 115.345 171.543C117.591 185.219 117.473 184.42 116.911 184.42C116.645 184.42 116.438 184.361 116.438 184.272C116.438 184.183 115.433 178.026 114.222 170.566C112.981 163.136 111.267 152.568 110.38 147.122C104.588 111.629 103.76 106.981 102.992 105.146C100.568 99.1961 97.1107 96.5023 93.2984 97.5384Z" fill="white"/>
<path d="M114.37 110.178V123.144L115.67 126.903C117.768 133.001 120.871 141.556 121.226 142.208C121.551 142.8 121.58 142.8 121.787 142C121.906 141.527 121.935 131.285 121.846 119.207L121.669 97.2423H118.005L114.37 97.2127V110.178Z" fill="white"/>
<path d="M46.3389 102.926C44.9203 104.406 44.8612 104.968 44.6839 114.885L44.5657 124.21L47.4028 124.298L50.2399 124.358L50.299 119.977C50.4172 111.806 50.2399 104.761 49.9148 104.11C49.3237 102.985 48.378 102.127 47.7279 102.127C47.3732 102.127 46.7526 102.482 46.3389 102.926Z" fill="white"/>
<path d="M140.76 102.778C140.435 103.163 139.992 103.755 139.815 104.11C139.489 104.761 139.312 111.806 139.43 119.977L139.489 124.358L142.327 124.298L145.164 124.21L145.045 114.885C144.868 104.968 144.809 104.406 143.39 102.926C142.474 101.949 141.558 101.89 140.76 102.778Z" fill="white"/>
<path d="M44.8612 126.015L43.1767 126.134L42.8516 127.377C42.6448 128.058 42.0833 130.278 41.5218 132.321C40.6943 135.547 40.5465 136.672 40.3692 141.053L40.1623 146.086L41.1376 144.635C42.5857 142.474 44.0042 141.438 45.8069 141.26C48.8213 140.964 51.2446 142.711 52.9292 146.352L53.7566 148.158L53.8453 143.569C53.9635 136.879 53.934 136.347 53.1065 132.617C52.6927 130.752 52.1903 128.443 52.013 127.496L51.6879 125.808L49.1168 125.867C47.6983 125.897 45.7774 125.956 44.8612 126.015Z" fill="white"/>
<path d="M137.716 127.466C137.539 128.413 137.037 130.752 136.623 132.617C135.795 136.347 135.766 136.879 135.884 143.569L135.973 148.158L136.8 146.352C138.485 142.711 140.908 140.964 143.922 141.26C145.725 141.438 147.144 142.474 148.592 144.635L149.567 146.086L149.36 141.053C149.183 136.406 149.065 135.666 147.883 131.166C147.173 128.502 146.553 126.282 146.494 126.223C146.434 126.163 144.513 126.015 142.238 125.927L138.071 125.719L137.716 127.466Z" fill="white"/>
<path d="M44.4475 142.445C43.1767 143.421 42.6448 144.132 41.8173 145.849C40.4579 148.691 40.2214 152.006 39.8373 173.704C39.6599 184.657 39.5713 193.685 39.6599 193.774C40.0441 194.129 45.275 194.485 47.521 194.277L50.0034 194.041L51.4811 190.044L52.9883 186.048L53.2838 169.915C53.5498 154.996 53.5202 153.575 53.0474 150.97C52.3972 147.566 51.5697 145.523 50.0625 143.895C48.1121 141.704 46.0729 141.172 44.4475 142.445Z" fill="white"/>
<path d="M141.41 142.326C139.017 143.806 137.509 146.559 136.682 150.97C136.209 153.575 136.18 154.996 136.446 169.915L136.741 186.048L138.248 190.044L139.726 194.041L142.208 194.277C144.454 194.485 149.685 194.129 150.069 193.774C150.158 193.685 150.069 184.657 149.892 173.704C149.508 152.006 149.271 148.691 147.912 145.849C146.168 142.237 143.716 140.935 141.41 142.326Z" fill="white"/>
<path d="M68.1489 146.796C67.4987 147.832 61.8246 164.439 62.0315 164.705C62.3861 165.208 67.1441 171.218 67.4101 171.514C67.6465 171.78 67.8829 171.306 72.0203 161.656C74.0004 156.979 75.0347 154.197 74.9461 153.812C74.6801 152.894 68.3853 146.382 68.1489 146.796ZM69.1537 151.828C69.1537 151.976 68.8877 152.391 68.5922 152.776C68.1489 153.308 67.942 153.397 67.6761 153.16C67.1145 152.598 67.6169 151.562 68.4444 151.562C68.8286 151.562 69.1537 151.68 69.1537 151.828ZM70.9269 153.752C70.9269 153.96 70.72 154.315 70.4836 154.522C69.8925 154.996 69.3606 154.552 69.6265 153.841C69.8334 153.249 70.9269 153.16 70.9269 153.752ZM73.5866 155.351C73.5866 155.795 72.4636 156.653 72.1385 156.446C71.6361 156.15 72.3159 155.114 72.9956 155.114C73.3206 155.114 73.5866 155.233 73.5866 155.351ZM67.3805 155.736C67.3805 156.328 66.7599 157.186 66.3462 157.186C65.7551 157.186 65.6369 156.861 65.9324 156.061C66.1689 155.41 67.3805 155.114 67.3805 155.736ZM68.9173 157.068C69.1832 157.305 68.8286 158.311 68.4444 158.459C67.7943 158.726 67.4396 158.282 67.7056 157.542C67.942 156.92 68.5626 156.683 68.9173 157.068ZM67.1737 160.739C68.2376 161.863 69.2424 163.018 69.3901 163.314C69.7448 163.995 68.1193 168.731 67.5283 168.731C67.3214 168.731 66.3166 167.754 65.2823 166.57C64.2479 165.416 63.2431 164.291 63.0363 164.113C62.7407 163.847 62.7407 163.492 63.1249 162.189C63.7751 159.998 64.4252 158.666 64.8685 158.666C65.0754 158.666 66.1098 159.584 67.1737 160.739ZM71.2224 159.081C71.2224 159.673 70.4245 160.235 69.8925 160.028C69.5083 159.91 69.4788 159.732 69.7448 159.258C70.0994 158.578 71.2224 158.459 71.2224 159.081Z" fill="white"/>
<path d="M64.4843 161.656L63.8932 163.551L65.3413 165.149C66.1393 166.037 66.7894 166.896 66.7894 167.014C66.7894 167.133 66.9076 167.251 67.0554 167.251C67.2032 167.251 67.6169 166.452 67.9715 165.475L68.6513 163.699L66.9076 161.834C65.9619 160.827 65.164 159.939 65.1345 159.91C65.0754 159.85 64.8094 160.62 64.4843 161.656Z" fill="white"/>
<path d="M118.211 149.815C116.497 151.621 114.99 153.368 114.872 153.723C114.665 154.226 115.286 155.973 117.709 161.627C121.846 171.306 122.083 171.78 122.319 171.514C122.585 171.218 127.343 165.208 127.698 164.705C127.934 164.409 122.024 147.27 121.521 146.766C121.403 146.648 119.896 148.01 118.211 149.815ZM122.201 152.184C122.319 152.539 122.26 152.953 122.053 153.16C121.787 153.397 121.58 153.308 121.137 152.776C120.398 151.858 120.428 151.562 121.285 151.562C121.758 151.562 122.083 151.769 122.201 152.184ZM120.103 153.841C120.369 154.552 119.837 154.996 119.246 154.522C119.009 154.315 118.802 153.96 118.802 153.753C118.802 153.16 119.896 153.249 120.103 153.841ZM117.62 155.677C118.034 156.506 117.443 156.802 116.704 156.121C115.995 155.469 115.995 155.114 116.734 155.114C117.029 155.114 117.443 155.381 117.62 155.677ZM123.856 156.239C124.063 156.742 124.004 156.95 123.62 157.098C123.117 157.305 122.349 156.506 122.349 155.765C122.349 155.114 123.59 155.499 123.856 156.239ZM122.024 157.542C122.29 158.282 121.935 158.726 121.285 158.459C120.901 158.311 120.546 157.305 120.812 157.068C121.167 156.683 121.787 156.92 122.024 157.542ZM119.985 159.258C120.251 159.732 120.221 159.91 119.837 160.028C119.305 160.235 118.507 159.673 118.507 159.081C118.507 158.459 119.63 158.578 119.985 159.258ZM125.688 159.614C125.925 160.147 126.338 161.301 126.604 162.189C126.989 163.492 126.989 163.847 126.693 164.113C126.486 164.291 125.481 165.416 124.447 166.57C123.413 167.754 122.408 168.731 122.201 168.731C121.61 168.731 119.985 163.995 120.339 163.314C120.812 162.426 124.477 158.666 124.861 158.666C125.068 158.666 125.452 159.11 125.688 159.614Z" fill="white"/>
<path d="M122.822 161.834L121.108 163.699L121.758 165.475C122.112 166.452 122.497 167.251 122.615 167.251C122.703 167.251 123.088 166.807 123.472 166.274C123.826 165.741 124.506 164.912 124.979 164.468L125.836 163.64L125.393 162.1C125.156 161.271 124.861 160.443 124.743 160.265C124.654 160.087 123.826 160.739 122.822 161.834Z" fill="white"/>
<path d="M28.0752 150.289C28.0752 150.556 33.2765 162.189 33.4834 162.396C33.5425 162.456 33.8971 161.094 34.2813 159.347L34.9315 156.15L33.6312 154.966C29.7893 151.473 28.0752 150.052 28.0752 150.289Z" fill="white"/>
<path d="M158.699 152.627C154.295 156.565 154.68 155.706 155.478 159.406L156.157 162.574L156.66 161.567C157.724 159.495 161.713 150.348 161.625 150.259C161.565 150.2 160.236 151.266 158.699 152.627Z" fill="white"/>
<path d="M26.0952 152.243C20.5392 165.179 15.663 176.546 15.663 176.605C15.663 176.664 16.4905 176.072 17.5249 175.303C18.5592 174.533 22.4011 171.721 26.0952 169.027C31.7693 164.942 32.7741 164.083 32.6264 163.58C32.3604 162.751 27.1591 151.147 26.9227 150.911C26.834 150.792 26.4498 151.414 26.0952 152.243Z" fill="white"/>
<path d="M161.95 152.628C158.285 160.709 156.896 164.084 157.103 164.291C157.251 164.409 160.827 167.014 165.053 170.063C169.279 173.112 173.062 175.895 173.446 176.25C173.919 176.664 174.096 176.724 174.007 176.428C173.83 175.984 165.348 156.15 163.723 152.48L162.895 150.555L161.95 152.628Z" fill="white"/>
<path d="M75.2711 156.772C74.8278 157.63 74.3845 158.696 70.9564 167.103C69.9516 169.53 69.0059 171.81 68.8286 172.165C68.6513 172.52 68.5626 173.053 68.6217 173.408C68.6808 173.793 69.6265 171.898 71.0451 168.494C72.3454 165.445 74.0003 161.538 74.7687 159.791C75.5666 158.015 76.069 156.476 75.9508 156.269C75.7735 156.032 75.5666 156.18 75.2711 156.772Z" fill="white"/>
<path d="M113.719 156.328C113.66 156.535 114.222 158.104 114.961 159.821C115.729 161.538 117.384 165.445 118.684 168.494C120.103 171.898 121.048 173.793 121.108 173.408C121.167 173.053 121.078 172.52 120.901 172.165C120.723 171.81 119.807 169.619 118.832 167.251C114.429 156.446 113.985 155.499 113.719 156.328Z" fill="white"/>
<path d="M35.5816 157.986C35.493 158.459 35.1383 159.88 34.8133 161.183C34.4882 162.485 34.3109 163.876 34.3995 164.32C34.4882 164.735 35.3157 166.748 36.2613 168.761C37.2366 170.774 38.1527 172.757 38.33 173.171C38.596 173.734 38.6847 172.254 38.6847 166.511V159.11L37.3844 158.134C36.6751 157.63 35.9954 157.186 35.9363 157.186C35.8476 157.186 35.6998 157.541 35.5816 157.986Z" fill="white"/>
<path d="M152.286 158.163L151.045 159.11V166.511C151.045 172.254 151.133 173.734 151.399 173.171C151.577 172.757 152.493 170.774 153.468 168.761C154.414 166.748 155.241 164.735 155.33 164.32C155.418 163.876 155.241 162.485 154.916 161.183C154.591 159.88 154.236 158.459 154.148 157.986C154.029 157.541 153.852 157.186 153.734 157.216C153.616 157.216 152.966 157.66 152.286 158.163Z" fill="white"/>
<path d="M25.2677 170.981C20.8939 174.148 16.6974 177.168 15.9881 177.701C14.7764 178.618 14.54 179.062 10.7572 187.824C8.57033 192.857 6.7085 197.327 6.59028 197.741C6.50163 198.155 6.02878 199.251 5.58549 200.168C5.11264 201.116 4.72845 201.915 4.72845 202.004C4.72845 202.063 5.96967 201.619 7.47687 201.027C8.95451 200.405 16.3427 197.534 23.8787 194.633C31.3851 191.732 37.739 189.216 37.9754 189.038C38.3301 188.772 38.4187 187.558 38.4483 182.259C38.4483 178.677 38.3301 175.628 38.1823 175.451C38.0345 175.244 36.9411 172.964 35.759 170.359C34.5768 167.754 33.5129 165.534 33.4243 165.416C33.3356 165.327 29.6711 167.813 25.2677 170.981Z" fill="white"/>
<path d="M155.655 166.718C154.029 170.389 151.783 175.125 151.547 175.451C151.399 175.628 151.281 178.707 151.281 182.259C151.311 187.558 151.399 188.772 151.754 189.038C151.99 189.216 158.344 191.732 165.851 194.633C173.387 197.534 180.775 200.405 182.282 201.027C183.76 201.619 185.001 202.063 185.001 202.004C185.001 201.915 184.617 201.086 184.114 200.109C183.641 199.132 183.228 198.215 183.228 198.007C183.228 197.83 181.425 193.478 179.208 188.328C176.401 181.786 174.923 178.707 174.362 178.204C173.919 177.789 170.52 175.303 166.796 172.639C163.073 170.004 159.201 167.221 158.196 166.481L156.335 165.149L155.655 166.718Z" fill="white"/>
<path d="M61.0562 166.511C60.8789 167.162 61.2926 167.784 64.041 170.922C67.0554 174.385 67.2327 174.533 67.3214 173.734C67.4101 173.053 67.1441 172.55 66.1393 171.425C65.43 170.655 64.1297 169.057 63.2431 167.902C62.3565 166.748 61.529 165.8 61.4404 165.771C61.3222 165.771 61.1449 166.096 61.0562 166.511Z" fill="white"/>
<path d="M126.486 167.902C125.6 169.057 124.299 170.655 123.59 171.425C122.585 172.55 122.319 173.053 122.408 173.734C122.497 174.533 122.674 174.385 125.688 170.922C128.437 167.784 128.85 167.162 128.673 166.511C128.584 166.096 128.407 165.771 128.289 165.771C128.2 165.8 127.373 166.748 126.486 167.902Z" fill="white"/>
<path d="M89.6929 185.634C74.6801 186.463 66.819 187.824 61.4108 190.518C58.4851 191.998 54.1113 194.692 52.4859 196.083C50.7423 197.534 48.9395 200.198 48.2894 202.329C47.8165 203.75 47.8461 203.957 48.2894 205.378C49.1464 207.894 51.4515 209.345 59.5786 212.394C66.3462 214.94 70.3949 216.035 76.9261 217.13C77.9604 217.308 78.0491 217.249 77.9013 216.745C77.5172 215.561 76.8374 212.068 76.8374 211.269C76.8374 210.026 77.7831 208.901 79.7041 207.894C87.3583 203.809 102.371 203.809 110.025 207.894C112.449 209.167 113.01 210.055 112.774 212.187C112.655 213.104 112.39 214.614 112.153 215.502C111.917 216.39 111.769 217.13 111.798 217.189C111.917 217.278 116.734 216.479 119.068 215.976C122.733 215.176 132.663 211.654 136.593 209.73C139.755 208.19 140.819 207.214 141.44 205.378C141.883 203.957 141.913 203.75 141.44 202.329C140.79 200.198 138.987 197.534 137.243 196.083C135.618 194.692 131.244 191.998 128.319 190.518C122.91 187.824 113.867 186.255 100.775 185.752C98.2633 185.663 95.8104 185.515 95.308 185.486C94.8351 185.426 92.2936 185.515 89.6929 185.634Z" fill="white"/>
<path d="M21.3667 196.794C7.27002 202.241 4.75802 203.306 4.90579 203.721C4.99445 204.017 10.5799 215.384 17.318 228.971C24.056 242.588 29.5529 253.837 29.5529 253.985C29.5529 254.162 29.6415 254.281 29.7893 254.281C30.1439 254.251 39.8964 231.132 39.8964 230.303C39.8964 228.823 38.596 223.051 38.2119 222.814C37.7095 222.518 37.7095 222.015 38.2414 220.949C39.0393 219.35 39.128 218.492 38.5369 218.285C37.1184 217.87 35.4339 216.923 35.2566 216.509C34.9315 215.68 35.7294 214.585 37.0888 213.993C38.2414 213.489 38.3892 213.312 38.1232 212.838C37.9754 212.542 37.7095 212.246 37.5321 212.187C37.3253 212.128 37.3844 211.299 37.6799 209.73C38.2119 207.036 38.596 200.139 38.3005 198.57C38.1823 197.859 37.8868 197.415 37.3844 197.208C36.4682 196.794 35.9067 195.669 36.1727 194.662C36.2909 194.13 36.616 193.863 37.3253 193.745C38.2414 193.567 38.271 193.508 38.3301 191.939C38.3301 191.051 38.271 190.341 38.1823 190.37C38.0641 190.37 30.4986 193.271 21.3667 196.794Z" fill="white"/>
<path d="M151.399 191.939C151.458 193.508 151.488 193.567 152.404 193.745C153.113 193.863 153.438 194.13 153.557 194.662C153.823 195.669 153.261 196.794 152.345 197.208C151.843 197.415 151.547 197.859 151.429 198.57C151.133 200.139 151.517 207.036 152.049 209.73C152.345 211.299 152.404 212.128 152.197 212.187C152.02 212.246 151.754 212.542 151.606 212.838C151.34 213.312 151.488 213.489 152.64 213.993C154 214.585 154.798 215.68 154.473 216.509C154.295 216.923 152.611 217.87 151.192 218.285C150.601 218.492 150.69 219.35 151.488 220.949C152.02 222.015 152.02 222.518 151.517 222.814C151.133 223.051 149.833 228.823 149.833 230.303C149.833 231.132 159.585 254.251 159.97 254.281C160.088 254.281 160.176 254.162 160.176 253.985C160.176 253.837 165.673 242.588 172.411 228.971C179.149 215.384 184.735 204.017 184.824 203.721C184.971 203.306 182.489 202.27 168.422 196.853C159.319 193.36 151.754 190.459 151.606 190.4C151.488 190.341 151.37 191.051 151.399 191.939Z" fill="white"/>
<path d="M36.8229 195.018C36.6455 195.343 37.2366 195.876 38.8029 196.823C40.1919 197.682 43.1472 198.067 46.2207 197.83L48.5258 197.652L49.0873 196.35C49.3828 195.61 49.6488 194.988 49.6488 194.929C49.6488 194.87 49.1464 194.958 48.5553 195.136C47.4914 195.432 41.5809 195.284 38.3892 194.899C37.6208 194.81 36.9411 194.84 36.8229 195.018Z" fill="white"/>
<path d="M140.081 194.929C140.081 194.988 140.346 195.61 140.642 196.35L141.204 197.652L143.509 197.83C146.73 198.096 149.478 197.682 151.104 196.735C153.941 195.077 153.498 194.485 149.863 195.047C147.173 195.432 142.386 195.491 141.026 195.106C140.524 194.958 140.081 194.87 140.081 194.929Z" fill="white"/>
<path d="M39.5122 203.276C39.4235 205.852 39.1575 208.782 38.9211 209.759C38.5369 211.565 38.5369 211.565 39.3348 212.364C39.7486 212.808 40.2805 213.075 40.517 213.015C41.374 212.749 46.3389 212.601 48.4667 212.779L50.6831 212.986L51.747 211.831L52.7814 210.677L51.0378 209.759C48.6735 208.546 47.4323 207.095 46.9595 204.993C46.6344 203.484 46.6639 203.128 47.2254 201.323C47.5801 200.227 47.8756 199.251 47.8756 199.162C47.8756 199.073 46.4571 198.984 44.7135 199.014C42.9403 199.014 41.108 198.925 40.6056 198.807L39.6895 198.599L39.5122 203.276Z" fill="white"/>
<path d="M147.764 198.955C146.878 199.073 145.164 199.103 144.011 199.014C142.829 198.925 141.854 198.955 141.854 199.073C141.854 199.221 142.149 200.227 142.504 201.323C143.065 203.128 143.095 203.484 142.77 204.993C142.297 207.095 141.056 208.546 138.692 209.759L136.948 210.677L137.982 211.831L139.046 212.986L141.263 212.779C143.39 212.601 148.355 212.749 149.212 213.015C149.449 213.075 149.981 212.808 150.394 212.364C151.192 211.565 151.192 211.565 150.808 209.759C150.572 208.782 150.306 205.852 150.217 203.276C150.099 200.139 149.951 198.629 149.715 198.659C149.537 198.688 148.651 198.807 147.764 198.955Z" fill="white"/>
<path d="M90.6977 205.763C85.8215 206.266 80.4133 208.013 78.6993 209.641C77.6945 210.588 77.7831 212.335 78.847 213.4C80.4724 215.028 85.3191 216.301 91.2592 216.627C100.096 217.13 108.577 215.739 110.882 213.4C111.946 212.335 112.035 210.559 111.06 209.67C109.168 207.924 103.996 206.296 98.677 205.733C95.3671 205.408 94.0076 205.408 90.6977 205.763Z" fill="white"/>
<path d="M40.8125 213.933C40.2214 214.052 40.1623 214.2 40.3101 214.969C40.3988 215.473 40.4874 216.242 40.4874 216.716C40.4874 217.456 40.6056 217.545 41.7582 217.722C43.1176 217.9 45.9251 217.989 48.4962 217.929L50.1217 217.87V215.976L50.0921 214.081L49.0577 213.904C47.9052 213.696 41.906 213.726 40.8125 213.933Z" fill="white"/>
<path d="M140.376 213.904C139.667 214.052 139.637 214.17 139.608 215.946V217.87L141.233 217.929C143.775 217.989 146.612 217.9 147.942 217.722L149.153 217.545L149.331 215.857C149.419 214.94 149.449 214.111 149.36 214.022C149.153 213.844 141.41 213.726 140.376 213.904Z" fill="white"/>
<path d="M60.5833 214.259C60.5833 214.407 60.7902 215.206 61.0562 216.094C61.6177 217.989 61.6177 217.959 62.061 220.978C62.2383 222.281 62.7703 225.419 63.2431 227.935C63.6864 230.451 64.2183 233.5 64.4252 234.654L64.7798 236.815H67.1145C68.3853 236.815 69.4492 236.697 69.4492 236.579C69.4492 236.431 69.6561 234.802 69.8925 232.938C70.1585 231.073 70.4836 228.438 70.6313 227.047C70.7791 225.655 71.1042 223.08 71.3406 221.304C71.843 217.752 71.9021 217.87 70.0698 217.337C65.696 216.035 61.9132 214.792 61.1153 214.318C60.8198 214.14 60.5833 214.14 60.5833 214.259Z" fill="white"/>
<path d="M78.6106 214.111C78.6106 214.496 86.0284 246.407 86.1466 246.525C86.2057 246.584 86.6194 246.436 87.0923 246.199C89.9293 244.749 99.8 244.749 102.637 246.199C103.11 246.436 103.524 246.584 103.583 246.525C103.701 246.407 111.119 214.496 111.119 214.111C111.119 214.081 110.675 214.289 110.143 214.614C107.1 216.42 101.869 217.367 94.8647 217.367C87.8606 217.367 82.6298 216.42 79.5858 214.614C79.0539 214.289 78.6106 214.081 78.6106 214.111Z" fill="white"/>
<path d="M128.732 214.229C128.437 214.555 125.541 215.532 120.073 217.189C119.216 217.456 118.507 217.811 118.507 217.989C118.507 218.166 118.714 219.706 118.98 221.422C119.216 223.139 119.541 225.655 119.689 227.047C119.837 228.438 120.162 231.073 120.428 232.938C120.664 234.802 120.871 236.431 120.871 236.579C120.871 236.697 121.935 236.815 123.206 236.815H125.541L125.895 234.654C126.102 233.5 126.634 230.451 127.077 227.935C127.55 225.419 128.082 222.34 128.259 221.126C128.762 217.841 128.821 217.574 129.264 215.709C129.56 214.436 129.589 214.022 129.294 214.022C129.116 214.022 128.85 214.111 128.732 214.229Z" fill="white"/>
<path d="M37.1479 214.821C36.5273 215.058 36.084 215.443 36.1431 215.62C36.2613 216.064 38.9211 217.367 39.2757 217.16C39.6304 216.923 38.9802 214.555 38.5665 214.436C38.3891 214.377 37.7685 214.555 37.1479 214.821Z" fill="white"/>
<path d="M51.2742 214.644C51.156 214.821 51.156 215.561 51.2742 216.301L51.4811 217.634L52.545 217.426C53.8453 217.19 55.2638 216.479 55.2638 216.065C55.2638 215.769 52.4268 214.318 51.8062 214.318C51.6288 214.318 51.3629 214.466 51.2742 214.644Z" fill="white"/>
<path d="M136.032 215.058C135.175 215.443 134.465 215.917 134.465 216.065C134.465 216.479 135.884 217.19 137.184 217.426L138.248 217.634L138.455 216.301C138.78 214.111 138.426 213.933 136.032 215.058Z" fill="white"/>
<path d="M150.749 214.999C150.601 215.384 150.424 216.005 150.365 216.42C150.306 217.012 150.394 217.13 150.986 217.042C151.872 216.953 153.438 216.065 153.586 215.621C153.645 215.443 153.172 215.058 152.493 214.792C150.986 214.2 151.045 214.2 150.749 214.999Z" fill="white"/>
<path d="M39.6599 220.446C39.0098 222.222 38.8325 222.074 41.7877 222.577C42.763 222.755 44.4179 222.903 45.4523 222.903C47.255 222.903 50.7423 222.222 51.2151 221.748C51.3333 221.63 51.2151 220.949 50.9787 220.209L50.5354 218.906H45.3636L40.2214 218.877L39.6599 220.446Z" fill="white"/>
<path d="M138.751 220.209C138.514 220.949 138.396 221.63 138.514 221.748C138.987 222.222 142.474 222.903 144.277 222.903C145.311 222.903 146.966 222.755 147.942 222.577C150.897 222.074 150.72 222.222 150.069 220.446L149.508 218.877L144.366 218.906H139.194L138.751 220.209Z" fill="white"/>
<path d="M40.0146 223.998C40.3101 225.004 41.4035 229.859 41.8173 232.079C42.9994 238.296 42.9107 238.088 44.0042 238.384C46.0138 238.888 46.2798 238.621 47.4028 234.95C47.9643 233.145 48.91 230.037 49.501 228.083C50.0921 226.129 50.6536 224.294 50.7422 224.027C50.89 223.554 50.7718 223.524 49.9148 223.731C48.5849 224.027 42.4083 223.998 40.9898 223.702C39.9554 223.495 39.8668 223.524 40.0146 223.998Z" fill="white"/>
<path d="M138.958 223.968C139.046 224.264 139.637 226.129 140.228 228.083C140.819 230.037 141.765 233.145 142.327 234.95C143.45 238.621 143.716 238.888 145.725 238.384C146.819 238.088 146.73 238.266 147.912 232.079C148.119 230.865 148.651 228.468 149.065 226.751C149.449 225.034 149.744 223.613 149.715 223.554C149.656 223.524 148.917 223.643 148.06 223.82C146.375 224.175 140.347 224.057 139.371 223.643C138.898 223.435 138.839 223.495 138.958 223.968Z" fill="white"/>
<path d="M65.1049 238.651C65.2232 239.184 65.4596 240.723 65.6369 242.055L65.9915 244.512H67.2328H68.474L68.7991 241.729C69.331 237.378 69.4788 237.704 67.0554 237.704H64.9572L65.1049 238.651Z" fill="white"/>
<path d="M70.5427 237.911C70.3358 238.295 69.6561 244.216 69.8334 244.393C70.2471 244.808 73.8821 244.512 75.4484 243.92C78.4924 242.765 79.6745 241.167 78.3742 239.983C77.6945 239.361 74.9165 238.384 73.0842 238.147C72.3158 238.029 71.4588 237.881 71.1633 237.822C70.8973 237.733 70.6313 237.792 70.5427 237.911Z" fill="white"/>
<path d="M117.177 238.148C113.276 238.888 111.414 239.835 111.414 241.137C111.414 242.706 115.256 244.571 118.477 244.542C119.512 244.542 120.428 244.453 120.517 244.394C120.753 244.127 119.837 237.911 119.541 237.822C119.394 237.792 118.33 237.94 117.177 238.148Z" fill="white"/>
<path d="M121.167 238.325C121.167 238.651 121.314 240.19 121.521 241.729L121.846 244.512H123.088H124.329L124.683 242.055C124.861 240.723 125.097 239.184 125.215 238.651L125.363 237.704H123.265C121.344 237.704 121.167 237.763 121.167 238.325Z" fill="white"/>
<path d="M60.8198 238.562C58.5147 239.184 57.1848 239.924 56.3868 240.989C55.5889 242.025 56.0618 242.884 57.8054 243.654C59.4308 244.394 63.1249 245.104 64.1592 244.897L64.9276 244.749L64.3661 241.611C64.0706 239.865 63.8342 238.355 63.8342 238.207C63.8342 237.881 63.0067 237.97 60.8198 238.562Z" fill="white"/>
<path d="M126.486 238.177C126.486 238.325 126.25 239.865 125.954 241.611L125.393 244.749L126.161 244.897C127.195 245.104 130.89 244.394 132.515 243.654C134.85 242.647 134.879 241.167 132.604 239.776C131.096 238.858 126.486 237.644 126.486 238.177Z" fill="white"/>
<path d="M70.7495 245.903C69.6561 246.022 69.5083 246.111 69.331 246.939C69.2423 247.443 69.1537 248.153 69.1537 248.567C69.1537 249.219 69.2423 249.248 70.2767 249.1C73.8526 248.479 76.2168 247.561 76.3646 246.732C76.3646 246.584 75.8622 246.288 75.212 246.111C74.0299 245.755 73.0547 245.696 70.7495 245.903Z" fill="white"/>
<path d="M115.108 246.081C114.458 246.288 113.926 246.584 113.956 246.732C114.044 247.561 116.468 248.479 120.103 249.1L121.255 249.278L121.078 247.739C120.96 246.91 120.842 246.17 120.812 246.14C120.457 245.814 116.113 245.785 115.108 246.081Z" fill="white"/>
<path d="M61.3517 246.466C59.7854 246.969 58.5146 247.679 58.5146 248.094C58.5146 248.567 61.5586 249.248 63.5977 249.248H65.6369L65.43 247.827C65.3414 247.058 65.1936 246.347 65.1049 246.199C64.8981 245.844 62.918 245.992 61.3517 246.466Z" fill="white"/>
<path d="M66.4939 246.673C66.4939 248.242 66.8486 249.248 67.4101 249.248C67.8534 249.248 67.9716 249.011 68.0307 248.064C68.0307 247.413 68.0602 246.703 68.0898 246.495C68.1193 246.318 67.7647 246.11 67.3214 246.051C66.6121 245.962 66.4939 246.051 66.4939 246.673Z" fill="white"/>
<path d="M122.26 246.199C122.201 246.347 122.201 247.058 122.29 247.827C122.378 248.952 122.526 249.248 122.94 249.248C123.472 249.248 123.826 248.212 123.826 246.703C123.826 246.14 123.679 245.992 123.117 245.992C122.703 245.992 122.319 246.081 122.26 246.199Z" fill="white"/>
<path d="M125.215 246.199C125.127 246.347 124.979 247.058 124.89 247.827L124.684 249.248H126.723C128.762 249.248 131.806 248.567 131.806 248.094C131.806 247.058 125.718 245.341 125.215 246.199Z" fill="white"/>
<path d="M88.8063 246.673C85.9397 247.413 85.9692 247.887 88.9245 248.804C89.5156 248.982 89.6042 248.923 89.4565 248.538C89.3383 248.212 89.5451 247.916 90.2249 247.561C90.9637 247.176 91.9685 247.058 94.8647 247.058C97.7608 247.058 98.7656 247.176 99.5045 247.561C100.184 247.916 100.391 248.212 100.273 248.538C100.125 248.923 100.214 248.982 100.805 248.804C105.119 247.502 102.933 246.525 95.4557 246.406C91.9685 246.347 89.7816 246.436 88.8063 246.673Z" fill="white"/>
<path d="M91.407 248.567C90.5795 248.715 90.5795 248.923 91.1706 253.245C91.407 255.021 91.9389 259.106 92.3527 262.273C93.5052 271.242 93.1802 270.266 94.8942 270.266C95.6922 270.266 96.3423 270.236 96.3423 270.177C96.3423 270.118 96.7265 267.098 97.2289 263.428C97.7017 259.787 98.3224 255.021 98.5883 252.889C98.8839 250.728 99.0021 248.863 98.8839 248.745C98.6179 248.479 92.4118 248.331 91.407 248.567Z" fill="white"/>
<path d="M67.085 251.054C67.085 251.38 67.2328 251.557 67.3805 251.468C67.5578 251.38 67.676 251.084 67.676 250.847C67.676 250.61 67.5578 250.432 67.3805 250.432C67.2328 250.432 67.085 250.699 67.085 251.054Z" fill="white"/>
<path d="M122.644 250.847C122.644 251.084 122.792 251.38 122.94 251.468C123.117 251.557 123.235 251.38 123.235 251.054C123.235 250.699 123.117 250.432 122.94 250.432C122.792 250.432 122.644 250.61 122.644 250.847Z" fill="white"/>
<path d="M93.8303 273.285C94.0667 275.742 94.1259 275.89 94.8647 275.89C95.6035 275.89 95.6626 275.742 95.899 273.285L96.1354 271.154H94.8647H93.5939L93.8303 273.285Z" fill="white"/>
<path d="M90.5795 271.805C89.5156 272.19 88.6586 272.871 88.6586 273.374C88.6586 274.173 90.9932 275.594 92.264 275.594C92.8255 275.594 92.8551 275.476 92.6777 274.025C92.5891 273.196 92.5004 272.249 92.5004 271.953C92.5004 271.391 91.9094 271.331 90.5795 271.805Z" fill="white"/>
<path d="M97.2289 271.923C97.2289 272.249 97.1402 273.196 97.0516 274.025C96.8743 275.476 96.9038 275.594 97.4358 275.594C98.3519 275.594 99.9773 274.824 100.627 274.114C101.071 273.64 101.13 273.374 100.893 272.989C100.509 272.397 99.4158 271.805 98.145 271.568C97.3767 271.42 97.2289 271.479 97.2289 271.923Z" fill="white"/>
<path d="M94.4214 277.873C94.5396 278.347 94.6873 278.761 94.7465 278.821C94.9238 279.028 95.1011 278.761 95.308 277.873C95.4853 277.193 95.4262 277.074 94.8647 277.074C94.3032 277.074 94.2441 277.193 94.4214 277.873Z" fill="white"/>
<path d="M91.998 277.577C91.407 277.785 91.5547 278.495 92.2345 278.88C93.0324 279.294 93.5348 278.85 93.2393 277.992C93.0619 277.37 92.7073 277.281 91.998 277.577Z" fill="white"/>
<path d="M96.4901 277.992C96.1946 278.85 96.6969 279.294 97.4949 278.88C98.2337 278.465 98.2928 277.814 97.6426 277.548C96.9038 277.252 96.6969 277.341 96.4901 277.992Z" fill="white"/>
<path d="M94.5691 280.034C94.5691 280.182 94.7169 280.33 94.8647 280.33C95.042 280.33 95.1602 280.182 95.1602 280.034C95.1602 279.857 95.042 279.738 94.8647 279.738C94.7169 279.738 94.5691 279.857 94.5691 280.034Z" fill="white"/>
</g>
<defs>
<clipPath id="clip0_209_83">
<rect width="189.729" height="317.925" fill="white"/>
</clipPath>
</defs>
</svg>
