<svg width="35" height="51" viewBox="0 0 35 51" fill="none" xmlns="http://www.w3.org/2000/svg">
<path d="M22 0C22.66 0 23.32 0 24 0C23 9 23 9 22 18C22.4821 17.4225 22.9642 16.845 23.4609 16.25C24.0926 15.5075 24.7242 14.765 25.375 14C26.3147 12.8862 26.3147 12.8862 27.2734 11.75C27.8432 11.1725 28.413 10.595 29 10C29.66 10 30.32 10 31 10C29.8441 13.9121 28.6446 16.8745 26 20C28.97 19.67 31.94 19.34 35 19C35 19.66 35 20.32 35 21C28.565 22.98 28.565 22.98 22 25C22 28.4129 22.6409 29.2996 24.5 32.0625C27 35.7917 27 35.7917 27 38C24 37 24 37 20 31C19.34 37.6 18.68 44.2 18 51C17.34 51 16.68 51 16 51C16 44.73 16 38.46 16 32C14.02 34.475 14.02 34.475 12 37C11.01 37 10.02 37 9 37C10.5271 33.564 12.5993 30.8809 15 28C14.1299 28.1992 14.1299 28.1992 13.2422 28.4023C8.84229 29.397 4.46106 30.3137 0 31C0 30.34 0 29.68 0 29C0.759258 28.7345 1.51852 28.4689 2.30078 28.1953C3.29465 27.8421 4.28852 27.4889 5.3125 27.125C6.29863 26.777 7.28477 26.4289 8.30078 26.0703C11.1559 25.0469 11.1559 25.0469 14 23C13.34 22.5462 12.68 22.0925 12 21.625C11.34 21.0888 10.68 20.5525 10 20C10 19.34 10 18.68 10 18C13.6186 18.6239 14.1709 19.1709 17 22C18.65 14.74 20.3 7.48 22 0Z" fill="white"/>
</svg>
