<svg width="300" height="300" viewBox="0 0 300 300" fill="none" xmlns="http://www.w3.org/2000/svg">
<path d="M132.113 22.3203C130.584 25.0048 124.85 48.015 119.689 73.518C109.558 123.182 105.736 134.879 96.9432 143.316C93.885 146.384 77.8292 155.396 61.2001 163.45L31 178.214L52.0254 179.557C63.6849 180.324 78.7849 181.282 86.0483 181.858L98.8546 183.008V223.851C98.8546 270.447 99.428 275.624 105.927 279.843C110.132 282.719 111.088 282.719 117.013 279.843C124.467 276.2 132.877 265.461 141.288 248.779C151.991 227.686 163.078 212.538 171.679 207.744C178.56 203.717 181.236 203.334 191.366 204.484C197.674 205.06 205.319 206.21 208.187 206.785C211.627 207.552 214.303 206.785 216.979 204.101C221.375 199.691 220.993 197.006 213.347 179.557L209.142 169.586L213.156 161.34C215.45 156.738 227.301 139.864 239.533 124.14C269.925 85.0231 272.027 81.7633 268.969 78.12C267.631 76.586 264.764 75.2437 262.47 75.2437C254.251 75.2437 235.328 81.3798 216.979 89.8169C194.233 100.171 188.117 100.555 182.956 92.1179C180.854 88.6663 178.369 81.188 177.222 75.2437C169.194 33.6336 165.562 26.347 149.124 20.7862C137.274 16.7595 135.745 16.9512 132.113 22.3203ZM152.183 71.7922C158.108 86.9406 162.122 104.39 160.975 109.951C159.064 118.58 142.243 125.099 139.567 118.196C138.229 114.361 144.728 61.8211 146.831 61.8211C147.404 61.8211 149.889 66.4231 152.183 71.7922ZM225.007 105.54C225.007 109.376 215.45 125.483 209.142 132.194C203.408 138.522 198.63 137.755 195.38 129.893C191.557 121.264 193.851 116.279 205.511 108.225C215.45 101.322 225.007 99.9797 225.007 105.54ZM175.502 141.782C179.898 152.136 180.089 159.806 176.266 168.052C172.826 175.338 160.975 182.625 152.565 182.625C143.581 182.625 132.113 177.256 129.628 171.887C126.761 165.175 126.952 162.683 131.731 152.711C135.936 143.316 144.919 136.029 157.535 131.81C166.9 128.551 170.723 130.66 175.502 141.782ZM104.589 163.45C104.589 173.421 100.766 175.338 82.99 174.571L69.228 173.996L85.4748 164.984C94.4584 159.998 102.295 155.971 103.251 155.779C104.015 155.779 104.589 159.231 104.589 163.45ZM149.698 191.254C151.8 196.623 127.526 232.864 121.027 234.014C117.777 234.781 117.586 233.822 118.542 223.66C121.027 198.732 127.717 188.377 141.288 188.377C146.066 188.377 149.124 189.336 149.698 191.254Z" fill="#C7C7C7"/>
</svg>
