<svg width="45" height="89" viewBox="0 0 45 89" fill="none" xmlns="http://www.w3.org/2000/svg">
<path d="M21.4694 2.25328C21.7166 0.989151 22.9813 0.245318 24.2309 0.557722C25.267 0.816748 26.0181 1.74063 26.0441 2.8083C26.461 19.9022 26.5056 21.731 26.8958 37.7284C26.93 39.1305 28.7081 39.7226 29.5495 38.6006C29.8287 38.2284 30.2738 38 30.7391 38C30.8861 38 31.0332 38 31.1804 38C32.6502 38 33.8102 39.3487 33.3129 40.7319C33.2067 41.0271 33.092 41.3062 32.9666 41.5769C31.9622 43.7443 32.9214 46.3895 35.2892 46.7052C38.1077 47.081 40.9434 47.4591 43.8236 47.8431C44.497 47.9329 45 48.4997 45 49.179C45 49.6796 44.7252 50.1517 44.2728 50.3661C41.563 51.6504 38.8647 52.0509 36.0696 52.1268C32.7523 52.2169 30.3082 54.7701 32 57.625C32.1714 57.9142 32.3427 58.2033 32.5144 58.4931C33.29 59.802 32.7155 61.5822 31.213 61.8215C31.0726 61.8438 30.9194 61.867 30.7492 61.892C30.2781 61.9613 29.807 61.807 29.4704 61.4704C28.5346 60.5346 26.9279 61.1617 26.8839 62.4844C26.6195 70.4156 26.3544 78.3694 26.0833 86.4998C26.0369 87.8938 24.9121 89 23.5173 89C22.1237 89 20.9619 87.8957 20.9139 86.5029C20.6474 78.7736 20.3803 71.0277 20.1073 63.1128C20.0738 62.1398 18.8168 61.7748 18.2768 62.5848C18.105 62.8426 17.8184 63.0131 17.5094 63.0349C17.2435 63.0537 17.0083 63.07 16.796 63.0838C15.0148 63.1995 13.9695 61.2303 14.8299 59.6664C15.0323 59.2984 15.2349 58.9304 15.4375 58.5625C15.89 57.7388 16.3424 56.9151 16.8086 56.0664C17.678 54.5586 17.0417 52.3848 15.3265 52.0889C13.0336 51.6935 10.7374 51.5756 8.3125 51.4375C7.61061 51.3943 6.90871 51.3511 6.18555 51.3066C4.95757 51.2315 3.72945 51.1588 2.50126 51.0871C1.60817 51.035 0.855416 50.4217 0.638439 49.5538C0.31575 48.263 1.28882 47 2.6193 47C5.66268 47 8.71301 47 11.7944 47C14.447 47 16.0292 44.0438 14.5578 41.8367C14.5008 41.7513 14.4438 41.6658 14.3868 41.5801C14.1346 41.2019 14 40.764 14 40.3094C14 39.0376 15.031 38 16.3028 38C16.6927 38 17.0846 38 17.4795 38C17.8047 38 18.1055 38.1583 18.2859 38.4288C18.8133 39.22 20.0486 38.8664 20.0703 37.9158C20.0721 37.833 20.074 37.7501 20.0759 37.667C20.1702 33.5818 20.2704 29.4967 20.3723 25.4116C20.4156 23.6444 20.4573 21.8772 20.4973 20.1099C20.5552 17.5679 20.6188 15.0262 20.6836 12.4844C20.7003 11.6957 20.717 10.907 20.7342 10.0944C20.8077 7.36806 20.9649 4.83337 21.4694 2.25328Z" fill="#F0F2F6"/>
</svg>
