<svg width="300" height="300" viewBox="0 0 300 300" fill="none" xmlns="http://www.w3.org/2000/svg">
<path d="M149.602 6.31179C147.919 8.89657 147.82 13.3702 147.523 76.0014C147.325 112.785 146.929 142.907 146.631 142.907C146.334 142.907 142.077 139.13 137.224 134.457C129.204 126.703 124.451 123.82 122.866 125.41C121.777 126.504 125.441 132.966 132.967 143.504L140.195 153.545L131.184 154.241C126.332 154.539 118.212 154.837 113.261 154.837C96.7248 154.837 79 157.521 79 159.808C79 163.089 90.5855 164.779 117.915 165.673C131.283 166.17 141.977 166.966 142.473 167.463C143.166 168.159 141.086 172.036 136.135 179.293C132.075 185.258 128.115 191.521 127.223 193.311C125.144 197.188 125.045 201.562 126.827 201.562C128.808 201.562 135.145 196.691 140.888 190.726C143.562 187.942 146.136 185.656 146.532 185.656C146.929 185.656 147.325 209.515 147.523 238.644C147.82 292.825 148.117 297 151.682 297C155.84 297 156.435 290.936 157.128 233.076L157.722 178.597L163.762 185.954C173.565 198.281 181.784 203.749 183.566 199.176C184.359 197.188 182.972 195.001 172.872 181.381C168.02 174.919 164.257 169.053 164.455 168.358C164.95 166.767 172.476 165.972 186.933 165.872C208.322 165.673 224.462 162.691 221.69 159.41C219.808 157.124 210.203 155.831 188.517 154.837C177.13 154.241 167.624 153.644 167.426 153.445C167.228 153.346 170.298 148.673 174.159 143.305C186.141 126.703 186.933 125.013 182.081 125.013C178.219 125.013 172.179 129.785 164.158 139.03L157.722 146.586L157.128 80.3756C156.435 13.072 155.939 5.11882 152.573 4.02526C151.979 3.82643 150.592 4.82057 149.602 6.31179Z" fill="#C7C7C7"/>
</svg>
