<svg width="45" height="48" viewBox="0 0 45 48" fill="none" xmlns="http://www.w3.org/2000/svg">
<path d="M18.3495 0.444444C18.782 0.297778 19.2146 0.151111 19.6602 0C19.8511 0.411641 19.8511 0.411641 20.0459 0.831597C20.9699 2.77362 21.907 4.58634 23.1553 6.33333C24.8874 8.86672 25.7299 11.7535 26.6505 14.6667C27.0526 14.4896 27.4547 14.3126 27.869 14.1302C33.5247 11.6973 38.8023 10.3839 45 10.6667C44.6323 13.8465 42.4466 16.0824 40.4672 18.4167C40.0394 18.9242 39.6116 19.4317 39.1839 19.9392C38.9805 20.1796 38.7772 20.4201 38.5678 20.6678C38.1018 21.2234 37.645 21.787 37.1905 22.3524C35.9777 23.8593 34.8623 24.8242 33.2039 25.7778C33.5103 26.0637 33.8166 26.3495 34.1323 26.6441C38.7171 31.0864 43.5946 37.3307 44.1262 44C42.8302 44.7127 41.8815 44.974 40.4297 44.6458C35.3443 42.8374 31.2167 40.0424 27.0737 36.6181C25.8031 35.5447 25.8031 35.5447 24.466 34.6667C24.421 34.9858 24.3759 35.3049 24.3295 35.6337C23.1578 40.5302 18.6946 44.5691 15.2913 48C13.5983 47.1667 13.5983 47.1667 13.1068 46.6667C12.9286 45.3326 12.7762 44.0055 12.6426 42.6667C12.6029 42.2994 12.5632 41.9322 12.5223 41.5538C12.1525 37.9389 12.0059 34.6369 12.8883 31.0833C13.01 30.5832 13.1316 30.083 13.257 29.5677C13.3516 29.197 13.4462 28.8264 13.5437 28.4444C13.2576 28.4061 12.9715 28.3677 12.6767 28.3281C7.96264 27.5898 3.943 25.8109 0 23.1111C0.0887439 22.059 0.0887439 22.059 0.436893 20.8889C4.40275 18.4097 10.2748 17.5409 14.8544 17.7778C14.7913 17.5498 14.7282 17.3217 14.6632 17.0868C13.5053 12.2278 13.211 6.09797 14.8544 1.33333C16.0658 -0.0633282 16.6698 -0.106765 18.3495 0.444444ZM17.0388 3.11111C17.0388 8.39111 17.0388 13.6711 17.0388 19.1111C15.5971 19.1111 14.1553 19.1111 12.6699 19.1111C11.3858 19.2802 11.3858 19.2802 10.2823 19.5816C9.8884 19.6799 9.49446 19.7781 9.08857 19.8793C8.6935 19.9833 8.29843 20.0873 7.89138 20.1944C7.48448 20.2967 7.07758 20.399 6.65835 20.5043C5.14774 20.8871 3.66184 21.2768 2.18447 21.7778C2.18447 22.0711 2.18447 22.3644 2.18447 22.6667C3.40304 23.158 3.40304 23.158 4.36893 23.1111C5.19299 23.3931 6.01162 23.6916 6.82646 24C7.26461 24.165 7.70277 24.33 8.1542 24.5C8.49099 24.6283 8.82777 24.7567 9.17476 24.8889C9.03058 25.1822 8.88641 25.4756 8.73786 25.7778C11.3409 26.6604 13.8709 26.9202 16.6019 27.1111C16.5445 27.3855 16.4871 27.66 16.4279 27.9427C14.9008 35.9315 14.9008 35.9315 15.2913 44C15.94 43.78 15.94 43.78 16.6019 43.5556C16.8182 42.8956 16.8182 42.8956 17.0388 42.2222C17.4714 41.9289 17.9039 41.6356 18.3495 41.3333C18.5658 40.6733 18.5658 40.6733 18.7864 40C18.9846 39.8075 19.1829 39.615 19.3871 39.4167C20.6326 38.101 21.2493 36.4534 21.8447 34.75C21.9888 34.4292 22.133 34.1083 22.2816 33.7778C22.7141 33.6311 23.1466 33.4844 23.5922 33.3333C23.5922 33.04 23.5922 32.7467 23.5922 32.4444C25.8605 33.7055 27.9185 35.1139 29.9818 36.6944C33.0463 39.3477 33.0463 39.3477 36.699 40.4167C38.3939 40.4526 38.9127 41.1587 40.1942 42.2222C41.1834 42.1664 41.1834 42.1664 41.9417 41.7778C40.6127 37.3999 38.2075 33.8557 35.3337 30.3889C35.1142 30.1205 34.8946 29.8521 34.6684 29.5755C33.3931 28.0824 32.4494 27.3304 30.5825 26.6667C30.2942 26.2267 30.0058 25.7867 29.7087 25.3333C31.5676 23.6431 33.4534 22.0096 35.4157 20.4444C39.2514 17.4981 39.2514 17.4981 41.5049 13.3333C41.3607 13.1867 41.2165 13.04 41.068 12.8889C38.9064 13.1011 36.9526 13.6077 34.8968 14.3056C34.6162 14.4007 34.3356 14.4959 34.0464 14.594C31.5821 15.4558 29.281 16.5543 26.9594 17.7604C25.7141 18.2467 25.2436 18.279 24.0291 17.7778C23.9863 17.4713 23.9435 17.1648 23.8994 16.849C23.4438 13.9362 22.7025 11.5182 21.4078 8.88889C21.2675 8.57207 21.1273 8.25524 20.9828 7.92882C20.0758 5.93018 19.1168 4.55495 17.4757 3.11111C17.3316 3.11111 17.1874 3.11111 17.0388 3.11111Z" fill="white"/>
</svg>
