<svg width="300" height="300" viewBox="0 0 300 300" fill="none" xmlns="http://www.w3.org/2000/svg">
<path d="M65.6342 112.572C68.6939 118.329 83.0667 129.021 115.887 149.566L143.023 166.828L137.389 180.732C124.129 213.375 124.198 212.218 135.848 194.804C148.793 175.147 152.126 172.483 161.846 174.304C170.196 175.734 195.326 186.452 209.838 194.831C225.247 203.727 234.744 202.826 232.088 192.914C230.974 188.281 228.816 186.836 197.658 168.248L164.641 148.388L172.9 132.01C181.528 114.647 185.832 100.973 183.508 98.4344C182.57 97.2945 177.503 104.344 166.562 121.567L150.915 146.249L114.94 126.675C78.8159 107.016 67.0307 102.207 64.7848 106.097C64.0937 107.294 64.4668 110.103 65.6342 112.572Z" fill="#C7C7C7"/>
</svg>
