<svg width="25" height="30" viewBox="0 0 25 30" fill="none" xmlns="http://www.w3.org/2000/svg">
<path d="M11 1.74349C11 0.780628 11.769 0 12.7319 0V0C13.4823 0 14.1601 0.480182 14.3974 1.19209C14.8795 2.63851 15.3626 4.08778 15.8501 5.55029C16.465 7.39497 18.5412 8.30211 20.3125 7.5V7.5V7.5C23.3122 6.27976 25.3686 9.32349 23.6273 12.0539C23.3938 12.42 23.1572 12.7847 22.9181 13.1486C21.771 14.8942 21.7119 17.1433 22.8159 18.9165C22.8913 19.0375 22.9731 19.1688 23.0625 19.3125C24.0567 20.9092 24.1989 21.1376 24.7084 22.3183C24.8975 22.7563 24.9189 23.2432 24.7681 23.6958V23.6958C24.3742 24.8774 22.988 25.4003 21.9165 24.7653C20.8532 24.1352 19.7899 23.5051 18.7266 22.875V22.875C16.6285 21.6101 14.329 23.3421 13.2334 25.5333C12.6472 26.7056 12.0576 27.8848 11.4611 29.0779C11.1785 29.643 10.61 30 9.97817 30V30C8.94741 30 8.15426 29.0745 8.32371 28.0577C8.58348 26.4991 8.84376 24.9375 9.10575 23.3655C9.58987 20.4608 7.51773 17.7518 4.58758 17.4588C3.58194 17.3582 2.57133 17.2571 1.55299 17.1553C0.67139 17.0671 0 16.3367 0 15.4507V15.4507C0 14.6172 0.596612 13.8915 1.41663 13.7424C3.33429 13.3938 4.45611 13.1898 5.62891 12.9766C8.73911 12.4111 11 9.70224 11 6.54105C11 4.95313 11 3.35647 11 1.74349Z" fill="white"/>
</svg>
