<svg width="300" height="300" viewBox="0 0 300 300" fill="none" xmlns="http://www.w3.org/2000/svg">
<path d="M145.294 49.1152C140.977 53.8013 136.285 66.5475 131.592 86.4165C127.651 103.286 123.521 105.911 79.037 120.344C46.1901 131.028 35.1159 136.277 36.0544 141.338C36.6175 143.774 41.3099 144.712 63.8336 146.586C95.7421 149.398 109.632 152.022 113.573 155.771C115.826 158.02 116.389 163.831 116.201 184.824C116.013 218.189 119.955 228.124 129.528 218.002C133.469 213.878 135.722 206.755 141.54 182.013C143.229 174.89 145.482 167.955 146.608 166.642C150.55 161.956 178.329 164.955 178.329 170.016C178.329 172.078 166.316 190.073 142.666 224C131.968 239.183 126.712 250.805 128.777 254.366C131.029 258.115 137.223 255.303 144.543 247.056C148.86 241.995 162.187 225.125 174.199 209.192C186.212 193.447 197.098 180.138 198.225 179.576C199.539 179.201 204.043 181.263 208.36 184.45C216.431 190.26 231.635 194.009 234.826 190.823C235.952 189.698 232.949 184.262 226.755 176.39C221.311 169.267 215.868 162.144 214.742 160.457C212.865 158.02 215.868 153.146 232.949 131.216C260.165 96.5385 267.485 81.3556 260.54 74.4201C256.598 70.4838 238.58 71.9834 216.431 77.9816C186.963 85.8542 186.587 85.6668 177.015 67.4847C164.439 44.0543 155.054 38.6184 145.294 49.1152ZM160.685 74.9825C165.753 87.1663 162.562 100.1 156.368 91.8524C152.614 86.604 153.177 68.4219 157.119 68.4219C157.494 68.4219 159.184 71.421 160.685 74.9825ZM244.023 85.1044C244.023 94.2892 211.927 133.09 205.357 131.778C200.852 131.028 193.157 115.658 192.031 105.348C190.904 95.2264 192.406 93.9143 213.428 87.1663C233.699 80.6058 244.023 79.856 244.023 85.1044ZM170.821 113.408C175.889 118.657 189.591 149.773 189.591 155.583C189.591 159.145 186.775 158.957 168.005 154.833C150.174 150.897 148.297 148.648 148.297 130.653C148.297 119.219 150.362 112.096 154.679 109.285C159.184 106.286 165.753 107.973 170.821 113.408ZM119.767 123.155C122.958 126.342 122.583 135.152 118.829 138.713C116.013 141.525 113.01 141.712 93.4897 140.588C58.2027 138.526 57.6396 137.776 84.668 129.529C97.4314 125.592 108.881 122.218 109.819 121.843C113.761 120.531 117.515 120.906 119.767 123.155Z" fill="#C7C7C7"/>
</svg>
