<svg width="153" height="256" viewBox="0 0 153 256" fill="none" xmlns="http://www.w3.org/2000/svg">
<path d="M94.4272 4.23749C83.1667 14.88 76.0887 33.4239 71.2628 64.8678C65.9542 100.827 60.6457 109.05 19.9471 143.397L0 160.328L22.521 161.296C34.7466 161.78 46.168 162.747 47.7766 163.392C49.2244 164.198 50.9939 166.456 51.4765 168.713C52.7634 173.39 47.4549 206.123 41.6638 229.666C36.677 250.145 36.8379 255.305 42.4681 255.95C52.1199 257.079 68.3672 239.019 82.5232 211.122C91.8533 193.062 98.4488 184.516 104.24 183.065C106.492 182.581 112.766 183.226 118.396 184.516C131.748 187.58 133.678 187.58 135.769 183.548C137.217 181.13 137.056 176.292 135.126 164.198C132.23 145.654 131.748 121.306 134.321 111.953C135.287 108.405 139.469 97.9242 143.812 88.5716C157.968 58.0953 156.682 53.7415 133.517 51.6452C114.213 49.8715 113.248 48.7427 111.64 26.9738C109.87 1.17372 104.722 -5.43756 94.4272 4.23749Z" fill="#C7C7C7"/>
</svg>
